<?xml version="1.0" encoding="UTF-8"?>
<svg viewBox="0 0 700 240" role="img" aria-label="Intensity versus phase difference for equal and unequal amplitudes" xmlns="http://www.w3.org/2000/svg">
<style>
:root { --panel:#ffffff; --fg:#1c1c1a; --muted:#5f5c54; --accent:#1f5fa8;
  --pos:#0b7a4b; --neg:#b3261e; --amber:#8a5a00; --violet:#6b3fa0; }
.w { fill:var(--panel); }
.ln { stroke:var(--fg); stroke-width:1.6; fill:none; stroke-linecap:round; stroke-linejoin:round; }
.ln2 { stroke:var(--fg); stroke-width:2.6; fill:none; stroke-linecap:round; }
.thinl { stroke:var(--muted); stroke-width:1; fill:none; stroke-dasharray:4 3; stroke-linecap:round; }
.acc { stroke:var(--accent); stroke-width:1.8; fill:none; }
.facc { fill:var(--accent); opacity:.14; stroke:var(--accent); stroke-width:1.4; }
.fneg { fill:var(--neg); opacity:.13; stroke:var(--neg); stroke-width:1.4; }
.fp { fill:#edf4fb; stroke:var(--accent); stroke-width:1.6; }
.fn { fill:#fbeeed; stroke:var(--neg); stroke-width:1.6; }
.fld { stroke:var(--accent); stroke-width:1.4; fill:none; opacity:.85; }
.lbl { font-family:Arial,sans-serif; font-size:13px; fill:var(--fg); }
.lbl.sm { font-size:11px; fill:var(--muted); }
.lbl.md { font-size:12px; }
.mi { font-family:Georgia,serif; font-style:italic; font-size:14px; fill:var(--fg); }
.mi.sm { font-size:11.5px; fill:var(--muted); }
.eq0 { fill:none; stroke:var(--muted); stroke-width:1; stroke-dasharray:2 4; }
.mtext { font-family:Georgia,serif; font-size:13px; fill:var(--fg); }
.hi { fill:var(--amber); opacity:.16; stroke:var(--amber); stroke-width:1.3; }
.pos { fill:var(--pos); } .negc { fill:var(--neg); }
line.mk,path.mk { stroke:var(--fg); stroke-width:1.4; }
</style>
<defs>
<marker id="ah" viewBox="0 0 10 10" refX="9" refY="5" markerWidth="6" markerHeight="6" orient="auto-start-reverse"><path d="M0,1 L9.6,5 L0,9 Z" fill="var(--fg)"/></marker>
<marker id="ahb" viewBox="0 0 10 10" refX="9" refY="5" markerWidth="6" markerHeight="6" orient="auto-start-reverse"><path d="M0,1 L9.6,5 L0,9 Z" fill="var(--accent)"/></marker>
<marker id="ahr" viewBox="0 0 10 10" refX="9" refY="5" markerWidth="6" markerHeight="6" orient="auto-start-reverse"><path d="M0,1 L9.6,5 L0,9 Z" fill="var(--neg)"/></marker>
<marker id="ahg" viewBox="0 0 10 10" refX="9" refY="5" markerWidth="6" markerHeight="6" orient="auto-start-reverse"><path d="M0,1 L9.6,5 L0,9 Z" fill="var(--pos)"/></marker>
<marker id="aho" viewBox="0 0 10 10" refX="8.6" refY="5" markerWidth="6" markerHeight="6" orient="auto-start-reverse"><path d="M1,1.4 L8.6,5 L1,8.6" fill="none" stroke="var(--fg)" stroke-width="1.8"/></marker>
<marker id="dim" viewBox="0 0 8 12" refX="4" refY="6" markerWidth="7" markerHeight="10" orient="auto"><path d="M4,0 L4,12" stroke="var(--muted)" stroke-width="1.1"/></marker>
</defs>

  <line x1="90" y1="200" x2="620" y2="200" class="ln"></line>
  <line x1="90" y1="200" x2="90" y2="40" class="ln"></line>
  <text x="86" y="46" class="lbl sm" text-anchor="end">I/I₀</text>
  <text x="628" y="205" class="lbl sm">Δφ</text>
  <text x="90" y="216" class="lbl sm">0</text>
  <text x="327" y="216" class="lbl sm" text-anchor="middle">2π</text>
  <text x="590" y="216" class="lbl sm" text-anchor="middle">4π</text>
  <text x="208" y="216" class="lbl sm" text-anchor="middle">π</text>
  <g class="dim"><line x1="208" y1="200" x2="208" y2="50"></line><line x1="90" y1="50" x2="620" y2="50"></line></g>
  <polyline class="acc" fill="none" points="90,50 105,55 120,71 135,94 151,121 166,150 181,174 196,192 211,200 226,197 242,184 257,163 272,136 287,107 302,81 317,62 332,51 348,51 363,62 378,81 393,107 408,136 423,162 438,184 454,197 469,200 484,192 499,174 514,150 529,121 545,94 560,71 575,55 590,50"></polyline>
  <polyline class="ln" fill="none" stroke-dasharray="5 3" points="90,50 105,55 120,68 135,89 151,113 166,138 181,160 196,176 211,183 226,181 242,169 257,150 272,126 287,101 302,78 317,61 332,51 348,51 363,61 378,78 393,101 408,126 423,150 438,169 454,181 469,183 484,176 499,160 514,138 529,113 545,89 560,68 575,55 590,50"></polyline>
  <text x="240" y="176" class="lbl sm">equal amplitudes: 4a²cos²(Δφ/2), down to zero</text>
  <text x="250" y="106" class="lbl sm">amplitudes 2 : 1 — minima no longer zero (Iₓₐₖ/Iₘₐₓ = 1/9)</text>
</svg>
