<?xml version="1.0" encoding="UTF-8"?>
<svg viewBox="0 0 700 280" role="img" aria-label="Fresnel biprism producing two virtual sources from one slit" xmlns="http://www.w3.org/2000/svg">
<style>
:root { --panel:#ffffff; --fg:#1c1c1a; --muted:#5f5c54; --accent:#1f5fa8;
  --pos:#0b7a4b; --neg:#b3261e; --amber:#8a5a00; --violet:#6b3fa0; }
.w { fill:var(--panel); }
.ln { stroke:var(--fg); stroke-width:1.6; fill:none; stroke-linecap:round; stroke-linejoin:round; }
.ln2 { stroke:var(--fg); stroke-width:2.6; fill:none; stroke-linecap:round; }
.thinl { stroke:var(--muted); stroke-width:1; fill:none; stroke-dasharray:4 3; stroke-linecap:round; }
.acc { stroke:var(--accent); stroke-width:1.8; fill:none; }
.facc { fill:var(--accent); opacity:.14; stroke:var(--accent); stroke-width:1.4; }
.fneg { fill:var(--neg); opacity:.13; stroke:var(--neg); stroke-width:1.4; }
.fp { fill:#edf4fb; stroke:var(--accent); stroke-width:1.6; }
.fn { fill:#fbeeed; stroke:var(--neg); stroke-width:1.6; }
.fld { stroke:var(--accent); stroke-width:1.4; fill:none; opacity:.85; }
.lbl { font-family:Arial,sans-serif; font-size:13px; fill:var(--fg); }
.lbl.sm { font-size:11px; fill:var(--muted); }
.lbl.md { font-size:12px; }
.mi { font-family:Georgia,serif; font-style:italic; font-size:14px; fill:var(--fg); }
.mi.sm { font-size:11.5px; fill:var(--muted); }
.eq0 { fill:none; stroke:var(--muted); stroke-width:1; stroke-dasharray:2 4; }
.mtext { font-family:Georgia,serif; font-size:13px; fill:var(--fg); }
.hi { fill:var(--amber); opacity:.16; stroke:var(--amber); stroke-width:1.3; }
.pos { fill:var(--pos); } .negc { fill:var(--neg); }
line.mk,path.mk { stroke:var(--fg); stroke-width:1.4; }
</style>
<defs>
<marker id="ah" viewBox="0 0 10 10" refX="9" refY="5" markerWidth="6" markerHeight="6" orient="auto-start-reverse"><path d="M0,1 L9.6,5 L0,9 Z" fill="var(--fg)"/></marker>
<marker id="ahb" viewBox="0 0 10 10" refX="9" refY="5" markerWidth="6" markerHeight="6" orient="auto-start-reverse"><path d="M0,1 L9.6,5 L0,9 Z" fill="var(--accent)"/></marker>
<marker id="ahr" viewBox="0 0 10 10" refX="9" refY="5" markerWidth="6" markerHeight="6" orient="auto-start-reverse"><path d="M0,1 L9.6,5 L0,9 Z" fill="var(--neg)"/></marker>
<marker id="ahg" viewBox="0 0 10 10" refX="9" refY="5" markerWidth="6" markerHeight="6" orient="auto-start-reverse"><path d="M0,1 L9.6,5 L0,9 Z" fill="var(--pos)"/></marker>
<marker id="aho" viewBox="0 0 10 10" refX="8.6" refY="5" markerWidth="6" markerHeight="6" orient="auto-start-reverse"><path d="M1,1.4 L8.6,5 L1,8.6" fill="none" stroke="var(--fg)" stroke-width="1.8"/></marker>
<marker id="dim" viewBox="0 0 8 12" refX="4" refY="6" markerWidth="7" markerHeight="10" orient="auto"><path d="M4,0 L4,12" stroke="var(--muted)" stroke-width="1.1"/></marker>
</defs>

  <line x1="60" y1="140" x2="580" y2="140" class="thinl"></line>
  <text x="44" y="136" class="lbl sm" text-anchor="end">S</text>
  <circle cx="60" cy="140" r="6" class="fp"></circle>
  <polygon points="260,120 260,160 300,110 300,170" class="fp"></polygon>
  <text x="280" y="196" class="lbl sm" text-anchor="middle">biprism, angle A</text>
  <circle cx="180" cy="104" r="5" class="fn"></circle><circle cx="180" cy="176" r="5" class="fn"></circle>
  <text x="184" y="98" class="lbl sm">S₁ (virtual)</text>
  <text x="184" y="194" class="lbl sm">S₂ (virtual)</text>
  <g class="dim"><line x1="60" y1="140" x2="180" y2="104"></line><line x1="60" y1="140" x2="180" y2="176"></line></g>
  <line x1="60" y1="140" x2="300" y2="64" class="acc"></line>
  <line x1="300" y1="64" x2="620" y2="18" class="acc"></line>
  <line x1="60" y1="140" x2="300" y2="216" class="acc"></line>
  <line x1="300" y1="216" x2="620" y2="262" class="acc"></line>
  <line x1="580" y1="10" x2="580" y2="272" class="ln2"></line>
  <text x="586" y="252" class="lbl sm">screen, at distance</text>
  <text x="586" y="268" class="lbl sm">b from the biprism</text>
  <line x1="180" y1="104" x2="180" y2="176" class="dim"></line>
  <text x="140" y="146" class="mi sm">d</text>
  <line x1="60" y1="230" x2="180" y2="230" class="dim"></line>
  <text x="106" y="248" class="lbl sm" text-anchor="middle">a</text>
  <text x="60" y="42" class="lbl sm">d = 2a(μ−1)A ≈ 2aA for a thin prism</text>
  <text x="60" y="60" class="lbl sm">D = a + b (virtual sources to screen)</text>
  <text x="60" y="78" class="lbl sm">β = λ(a+b)/d</text>
</svg>
