<?xml version="1.0" encoding="UTF-8"?>
<svg viewBox="0 0 860 300" role="img" aria-label="Fermat&#x27;s construction: the reflected path equals a straight line to the mirror image of the observer" xmlns="http://www.w3.org/2000/svg">
<style>
:root { --panel:#ffffff; --fg:#1c1c1a; --muted:#5f5c54; --accent:#1f5fa8;
  --pos:#0b7a4b; --neg:#b3261e; --amber:#8a5a00; --violet:#6b3fa0; }
.w { fill:var(--panel); }
.ln { stroke:var(--fg); stroke-width:1.6; fill:none; stroke-linecap:round; stroke-linejoin:round; }
.ln2 { stroke:var(--fg); stroke-width:2.6; fill:none; stroke-linecap:round; }
.thinl { stroke:var(--muted); stroke-width:1; fill:none; stroke-dasharray:4 3; stroke-linecap:round; }
.acc { stroke:var(--accent); stroke-width:1.8; fill:none; }
.facc { fill:var(--accent); opacity:.14; stroke:var(--accent); stroke-width:1.4; }
.fneg { fill:var(--neg); opacity:.13; stroke:var(--neg); stroke-width:1.4; }
.fp { fill:#edf4fb; stroke:var(--accent); stroke-width:1.6; }
.fn { fill:#fbeeed; stroke:var(--neg); stroke-width:1.6; }
.fld { stroke:var(--accent); stroke-width:1.4; fill:none; opacity:.85; }
.lbl { font-family:Arial,sans-serif; font-size:13px; fill:var(--fg); }
.lbl.sm { font-size:11px; fill:var(--muted); }
.lbl.md { font-size:12px; }
.mi { font-family:Georgia,serif; font-style:italic; font-size:14px; fill:var(--fg); }
.mi.sm { font-size:11.5px; fill:var(--muted); }
.eq0 { fill:none; stroke:var(--muted); stroke-width:1; stroke-dasharray:2 4; }
.mtext { font-family:Georgia,serif; font-size:13px; fill:var(--fg); }
.hi { fill:var(--amber); opacity:.16; stroke:var(--amber); stroke-width:1.3; }
.pos { fill:var(--pos); } .negc { fill:var(--neg); }
line.mk,path.mk { stroke:var(--fg); stroke-width:1.4; }
</style>
<defs>
<marker id="ah" viewBox="0 0 10 10" refX="9" refY="5" markerWidth="6" markerHeight="6" orient="auto-start-reverse"><path d="M0,1 L9.6,5 L0,9 Z" fill="var(--fg)"/></marker>
<marker id="ahb" viewBox="0 0 10 10" refX="9" refY="5" markerWidth="6" markerHeight="6" orient="auto-start-reverse"><path d="M0,1 L9.6,5 L0,9 Z" fill="var(--accent)"/></marker>
<marker id="ahr" viewBox="0 0 10 10" refX="9" refY="5" markerWidth="6" markerHeight="6" orient="auto-start-reverse"><path d="M0,1 L9.6,5 L0,9 Z" fill="var(--neg)"/></marker>
<marker id="ahg" viewBox="0 0 10 10" refX="9" refY="5" markerWidth="6" markerHeight="6" orient="auto-start-reverse"><path d="M0,1 L9.6,5 L0,9 Z" fill="var(--pos)"/></marker>
<marker id="aho" viewBox="0 0 10 10" refX="8.6" refY="5" markerWidth="6" markerHeight="6" orient="auto-start-reverse"><path d="M1,1.4 L8.6,5 L1,8.6" fill="none" stroke="var(--fg)" stroke-width="1.8"/></marker>
<marker id="dim" viewBox="0 0 8 12" refX="4" refY="6" markerWidth="7" markerHeight="10" orient="auto"><path d="M4,0 L4,12" stroke="var(--muted)" stroke-width="1.1"/></marker>
</defs>

  <line x1="60" y1="200" x2="800" y2="200" class="ln2"></line>
  <text x="770" y="222" class="lbl sm" text-anchor="end">mirror</text>
  <g stroke="var(--muted)" stroke-width="1">
    <line x1="60" y1="200" x2="800" y2="200" stroke-dasharray="1 0"></line>
  </g>
  <circle cx="200" cy="80" r="4" class="eq0"></circle><text x="200" y="70" class="lbl" text-anchor="middle">A (object)</text>
  <circle cx="620" cy="110" r="4" class="eq0"></circle><text x="620" y="100" class="lbl" text-anchor="middle">B (observer)</text>
  <circle cx="620" cy="290" r="4" class="eq0"></circle><text x="620" y="308" class="lbl sm" text-anchor="middle">B' (image of B)</text>
  <line x1="200" y1="80" x2="440" y2="200" class="ln" stroke="var(--accent)"></line>
  <line x1="440" y1="200" x2="620" y2="110" class="ln" stroke="var(--accent)" marker-end="url(#ahb)"></line>
  <line x1="440" y1="200" x2="620" y2="290" class="thinl" stroke-dasharray="5 4"></line>
  <line x1="620" y1="110" x2="620" y2="290" class="thinl" stroke-dasharray="4 3"></line>
  <line x1="440" y1="120" x2="440" y2="280" class="dim"></line>
  <text x="448" y="130" class="lbl sm" text-anchor="start">normal</text>
  <path d="M440,160 a40,40 0 0 1 14,-34" class="thinl" fill="none"></path>
  <path d="M440,160 a40,40 0 0 0 -14,34" class="thinl" fill="none"></path>
  <text x="470" y="150" class="mi sm">i</text>
  <text x="412" y="186" class="mi sm">r</text>
  <circle cx="440" cy="200" r="3.5" class="eq0"></circle>
  <text x="440" y="192" class="lbl sm" text-anchor="middle">P</text>
  <line x1="200" y1="80" x2="300" y2="200" class="thinl" stroke-dasharray="4 3"></line>
  <line x1="300" y1="200" x2="620" y2="110" class="thinl" stroke-dasharray="4 3"></line>
  <circle cx="300" cy="200" r="3" class="eq0"></circle>
  <text x="300" y="190" class="mi sm" text-anchor="middle">P'</text>
  <text x="300" y="240" class="lbl sm" text-anchor="middle">a competing path: longer</text>
</svg>
