<?xml version="1.0" encoding="UTF-8"?>
<svg viewBox="0 0 760 210" role="img" aria-label="A filled flask with a narrow neck at two temperatures: liquid level rises by the difference between liquid and container expansion" xmlns="http://www.w3.org/2000/svg">
<style>
:root { --panel:#ffffff; --fg:#1c1c1a; --muted:#5f5c54; --accent:#1f5fa8;
  --pos:#0b7a4b; --neg:#b3261e; --amber:#8a5a00; --violet:#6b3fa0; }
.w { fill:var(--panel); }
.ln { stroke:var(--fg); stroke-width:1.6; fill:none; stroke-linecap:round; stroke-linejoin:round; }
.ln2 { stroke:var(--fg); stroke-width:2.6; fill:none; stroke-linecap:round; }
.thinl { stroke:var(--muted); stroke-width:1; fill:none; stroke-dasharray:4 3; stroke-linecap:round; }
.acc { stroke:var(--accent); stroke-width:1.8; fill:none; }
.facc { fill:var(--accent); opacity:.14; stroke:var(--accent); stroke-width:1.4; }
.fneg { fill:var(--neg); opacity:.13; stroke:var(--neg); stroke-width:1.4; }
.fp { fill:#edf4fb; stroke:var(--accent); stroke-width:1.6; }
.fn { fill:#fbeeed; stroke:var(--neg); stroke-width:1.6; }
.fld { stroke:var(--accent); stroke-width:1.4; fill:none; opacity:.85; }
.lbl { font-family:Arial,sans-serif; font-size:13px; fill:var(--fg); }
.lbl.sm { font-size:11px; fill:var(--muted); }
.lbl.md { font-size:12px; }
.mi { font-family:Georgia,serif; font-style:italic; font-size:14px; fill:var(--fg); }
.mi.sm { font-size:11.5px; fill:var(--muted); }
.eq0 { fill:none; stroke:var(--muted); stroke-width:1; stroke-dasharray:2 4; }
.mtext { font-family:Georgia,serif; font-size:13px; fill:var(--fg); }
.hi { fill:var(--amber); opacity:.16; stroke:var(--amber); stroke-width:1.3; }
.pos { fill:var(--pos); } .negc { fill:var(--neg); }
line.mk,path.mk { stroke:var(--fg); stroke-width:1.4; }
</style>
<defs>
<marker id="ah" viewBox="0 0 10 10" refX="9" refY="5" markerWidth="6" markerHeight="6" orient="auto-start-reverse"><path d="M0,1 L9.6,5 L0,9 Z" fill="var(--fg)"/></marker>
<marker id="ahb" viewBox="0 0 10 10" refX="9" refY="5" markerWidth="6" markerHeight="6" orient="auto-start-reverse"><path d="M0,1 L9.6,5 L0,9 Z" fill="var(--accent)"/></marker>
<marker id="ahr" viewBox="0 0 10 10" refX="9" refY="5" markerWidth="6" markerHeight="6" orient="auto-start-reverse"><path d="M0,1 L9.6,5 L0,9 Z" fill="var(--neg)"/></marker>
<marker id="ahg" viewBox="0 0 10 10" refX="9" refY="5" markerWidth="6" markerHeight="6" orient="auto-start-reverse"><path d="M0,1 L9.6,5 L0,9 Z" fill="var(--pos)"/></marker>
<marker id="aho" viewBox="0 0 10 10" refX="8.6" refY="5" markerWidth="6" markerHeight="6" orient="auto-start-reverse"><path d="M1,1.4 L8.6,5 L1,8.6" fill="none" stroke="var(--fg)" stroke-width="1.8"/></marker>
<marker id="dim" viewBox="0 0 8 12" refX="4" refY="6" markerWidth="7" markerHeight="10" orient="auto"><path d="M4,0 L4,12" stroke="var(--muted)" stroke-width="1.1"/></marker>
</defs>

  <path d="M150,60 v60 l-45,70 a55 55 0 0 0 90,0 l-45,-70 v-60 z" class="w ln" fill="none"></path>
  <rect x="140" y="42" width="20" height="20" class="w thinl" fill="none"></rect>
  <path d="M150,190 h0" class="hidden"></path>
  <line x1="150" y1="190" x2="150" y2="190" class="dim"></line>
  <text x="150" y="205" class="lbl sm" text-anchor="middle">T₀: filled to the brim</text>
  <path d="M530,60 v60 l-45,70 a55 55 0 0 0 90,0 l-45,-70 v-60 z" class="w ln" fill="none" transform="translate(0,4) scale(1.012,1.012)" transform-origin="530 140"></path>
  <rect x="520" y="24" width="20" height="40" class="w thinl" fill="none"></rect>
  <path d="M512,44 h36 v18 h-36 z" fill="var(--accent)" opacity="0.35"></path>
  <text x="600" y="40" class="lbl sm">spill = V(γℓ − 3αg)ΔT</text>
  <text x="600" y="150" class="lbl sm">flask volume grew too:</text>
  <text x="600" y="164" class="lbl sm">the bulb is larger</text>
  <line x1="485" y1="128" x2="575" y2="128" class="dim" marker-start="url(#dim)" marker-end="url(#dim)"></line>
</svg>
