<?xml version="1.0" encoding="UTF-8"?>
<svg viewBox="0 0 700 150" role="img" aria-label="Infinite ladder of series C and shunt C capacitors" xmlns="http://www.w3.org/2000/svg">
<style>
:root { --panel:#ffffff; --fg:#1c1c1a; --muted:#5f5c54; --accent:#1f5fa8;
  --pos:#0b7a4b; --neg:#b3261e; --amber:#8a5a00; --violet:#6b3fa0; }
.w { fill:var(--panel); }
.ln { stroke:var(--fg); stroke-width:1.6; fill:none; stroke-linecap:round; stroke-linejoin:round; }
.ln2 { stroke:var(--fg); stroke-width:2.6; fill:none; stroke-linecap:round; }
.thinl { stroke:var(--muted); stroke-width:1; fill:none; stroke-dasharray:4 3; stroke-linecap:round; }
.acc { stroke:var(--accent); stroke-width:1.8; fill:none; }
.facc { fill:var(--accent); opacity:.14; stroke:var(--accent); stroke-width:1.4; }
.fneg { fill:var(--neg); opacity:.13; stroke:var(--neg); stroke-width:1.4; }
.fp { fill:#edf4fb; stroke:var(--accent); stroke-width:1.6; }
.fn { fill:#fbeeed; stroke:var(--neg); stroke-width:1.6; }
.fld { stroke:var(--accent); stroke-width:1.4; fill:none; opacity:.85; }
.lbl { font-family:Arial,sans-serif; font-size:13px; fill:var(--fg); }
.lbl.sm { font-size:11px; fill:var(--muted); }
.lbl.md { font-size:12px; }
.mi { font-family:Georgia,serif; font-style:italic; font-size:14px; fill:var(--fg); }
.mi.sm { font-size:11.5px; fill:var(--muted); }
.eq0 { fill:none; stroke:var(--muted); stroke-width:1; stroke-dasharray:2 4; }
.mtext { font-family:Georgia,serif; font-size:13px; fill:var(--fg); }
.hi { fill:var(--amber); opacity:.16; stroke:var(--amber); stroke-width:1.3; }
.pos { fill:var(--pos); } .negc { fill:var(--neg); }
line.mk,path.mk { stroke:var(--fg); stroke-width:1.4; }
</style>
<defs>
<marker id="ah" viewBox="0 0 10 10" refX="9" refY="5" markerWidth="6" markerHeight="6" orient="auto-start-reverse"><path d="M0,1 L9.6,5 L0,9 Z" fill="var(--fg)"/></marker>
<marker id="ahb" viewBox="0 0 10 10" refX="9" refY="5" markerWidth="6" markerHeight="6" orient="auto-start-reverse"><path d="M0,1 L9.6,5 L0,9 Z" fill="var(--accent)"/></marker>
<marker id="ahr" viewBox="0 0 10 10" refX="9" refY="5" markerWidth="6" markerHeight="6" orient="auto-start-reverse"><path d="M0,1 L9.6,5 L0,9 Z" fill="var(--neg)"/></marker>
<marker id="ahg" viewBox="0 0 10 10" refX="9" refY="5" markerWidth="6" markerHeight="6" orient="auto-start-reverse"><path d="M0,1 L9.6,5 L0,9 Z" fill="var(--pos)"/></marker>
<marker id="aho" viewBox="0 0 10 10" refX="8.6" refY="5" markerWidth="6" markerHeight="6" orient="auto-start-reverse"><path d="M1,1.4 L8.6,5 L1,8.6" fill="none" stroke="var(--fg)" stroke-width="1.8"/></marker>
<marker id="dim" viewBox="0 0 8 12" refX="4" refY="6" markerWidth="7" markerHeight="10" orient="auto"><path d="M4,0 L4,12" stroke="var(--muted)" stroke-width="1.1"/></marker>
</defs>

  <line x1="20" y1="40" x2="90" y2="40" class="ln"></line>
  <g><rect x="90" y="32" width="34" height="16" class="w ln"></rect><line x1="100" y1="32" x2="100" y2="48" class="ln"></line><line x1="114" y1="32" x2="114" y2="48" class="ln"></line><text x="94" y="24" class="mi sm">C</text></g>
  <line x1="124" y1="40" x2="190" y2="40" class="ln"></line>
  <g><rect x="196" y="58" width="16" height="34" class="w ln" transform="rotate(90 204 75)"></rect><text x="212" y="72" class="mi sm">C</text></g>
  <line x1="204" y1="40" x2="204" y2="58" class="ln"></line><line x1="204" y1="92" x2="204" y2="120" class="ln"></line>
  <line x1="20" y1="120" x2="660" y2="120" class="ln"></line>
  <line x1="204" y1="40" x2="270" y2="40" class="ln"></line>
  <g><rect x="270" y="32" width="34" height="16" class="w ln"></rect><text x="276" y="24" class="mi sm">C</text></g>
  <line x1="304" y1="40" x2="380" y2="40" class="ln"></line>
  <line x1="380" y1="40" x2="380" y2="58" class="ln"></line><rect x="372" y="58" width="16" height="34" class="w ln" transform="rotate(90 380 75)"></rect><line x1="380" y1="92" x2="380" y2="120" class="ln"></line>
  <text x="392" y="72" class="mi sm">C</text>
  <line x1="380" y1="40" x2="446" y2="40" class="ln"></line>
  <g><rect x="446" y="32" width="34" height="16" class="w ln"></rect><text x="452" y="24" class="mi sm">C</text></g>
  <line x1="480" y1="40" x2="556" y2="40" class="ln"></line>
  <line x1="556" y1="40" x2="556" y2="58" class="ln"></line><rect x="548" y="58" width="16" height="34" class="w ln" transform="rotate(90 556 75)"></rect><line x1="556" y1="92" x2="556" y2="120" class="ln"></line><text x="568" y="72" class="mi sm">C</text>
  <line x1="556" y1="40" x2="620" y2="40" class="ln" stroke-dasharray="0"></line>
  <text x="622" y="46" class="mi">…</text><text x="622" y="126" class="lbl sm">∞ sections</text>
  <text x="20" y="24" class="lbl sm">input terminals</text>
  <line x1="20" y1="40" x2="20" y2="120" class="thinl"></line>
  <text x="34" y="90" class="mi sm">x</text>
  <path d="M8,52 a10,10 0 0 1 0,56" class="ln" fill="none"></path>
</svg>
