<?xml version="1.0" encoding="UTF-8"?>
<svg viewBox="0 0 720 220" role="img" aria-label="Slab entering a parallel plate capacitor; fringing field at the entrance bends towards the slab and the force arrow points inwards" xmlns="http://www.w3.org/2000/svg">
<style>
:root { --panel:#ffffff; --fg:#1c1c1a; --muted:#5f5c54; --accent:#1f5fa8;
  --pos:#0b7a4b; --neg:#b3261e; --amber:#8a5a00; --violet:#6b3fa0; }
.w { fill:var(--panel); }
.ln { stroke:var(--fg); stroke-width:1.6; fill:none; stroke-linecap:round; stroke-linejoin:round; }
.ln2 { stroke:var(--fg); stroke-width:2.6; fill:none; stroke-linecap:round; }
.thinl { stroke:var(--muted); stroke-width:1; fill:none; stroke-dasharray:4 3; stroke-linecap:round; }
.acc { stroke:var(--accent); stroke-width:1.8; fill:none; }
.facc { fill:var(--accent); opacity:.14; stroke:var(--accent); stroke-width:1.4; }
.fneg { fill:var(--neg); opacity:.13; stroke:var(--neg); stroke-width:1.4; }
.fp { fill:#edf4fb; stroke:var(--accent); stroke-width:1.6; }
.fn { fill:#fbeeed; stroke:var(--neg); stroke-width:1.6; }
.fld { stroke:var(--accent); stroke-width:1.4; fill:none; opacity:.85; }
.lbl { font-family:Arial,sans-serif; font-size:13px; fill:var(--fg); }
.lbl.sm { font-size:11px; fill:var(--muted); }
.lbl.md { font-size:12px; }
.mi { font-family:Georgia,serif; font-style:italic; font-size:14px; fill:var(--fg); }
.mi.sm { font-size:11.5px; fill:var(--muted); }
.eq0 { fill:none; stroke:var(--muted); stroke-width:1; stroke-dasharray:2 4; }
.mtext { font-family:Georgia,serif; font-size:13px; fill:var(--fg); }
.hi { fill:var(--amber); opacity:.16; stroke:var(--amber); stroke-width:1.3; }
.pos { fill:var(--pos); } .negc { fill:var(--neg); }
line.mk,path.mk { stroke:var(--fg); stroke-width:1.4; }
</style>
<defs>
<marker id="ah" viewBox="0 0 10 10" refX="9" refY="5" markerWidth="6" markerHeight="6" orient="auto-start-reverse"><path d="M0,1 L9.6,5 L0,9 Z" fill="var(--fg)"/></marker>
<marker id="ahb" viewBox="0 0 10 10" refX="9" refY="5" markerWidth="6" markerHeight="6" orient="auto-start-reverse"><path d="M0,1 L9.6,5 L0,9 Z" fill="var(--accent)"/></marker>
<marker id="ahr" viewBox="0 0 10 10" refX="9" refY="5" markerWidth="6" markerHeight="6" orient="auto-start-reverse"><path d="M0,1 L9.6,5 L0,9 Z" fill="var(--neg)"/></marker>
<marker id="ahg" viewBox="0 0 10 10" refX="9" refY="5" markerWidth="6" markerHeight="6" orient="auto-start-reverse"><path d="M0,1 L9.6,5 L0,9 Z" fill="var(--pos)"/></marker>
<marker id="aho" viewBox="0 0 10 10" refX="8.6" refY="5" markerWidth="6" markerHeight="6" orient="auto-start-reverse"><path d="M1,1.4 L8.6,5 L1,8.6" fill="none" stroke="var(--fg)" stroke-width="1.8"/></marker>
<marker id="dim" viewBox="0 0 8 12" refX="4" refY="6" markerWidth="7" markerHeight="10" orient="auto"><path d="M4,0 L4,12" stroke="var(--muted)" stroke-width="1.1"/></marker>
</defs>

  <g transform="translate(30,30)">
    <rect x="0" y="0" width="380" height="9" class="w" stroke="var(--fg)" stroke-width="2"></rect>
    <rect x="0" y="101" width="380" height="9" class="w" stroke="var(--fg)" stroke-width="2"></rect>
    <text x="330" y="-8" class="lbl sm">+ V (battery held)</text>
    <rect x="60" y="12" width="150" height="86" class="fp"></rect>
    <text x="98" y="60" class="mi">κ</text>
    <line x1="210" y1="12" x2="210" y2="98" stroke="var(--accent)" stroke-width="1.6"></line>
    <g class="fld">
      <line x1="100" y1="20" x2="100" y2="90"></line><line x1="140" y1="20" x2="140" y2="90"></line><line x1="180" y1="20" x2="180" y2="90"></line>
      <line x1="250" y1="20" x2="250" y2="90"></line><line x1="300" y1="20" x2="300" y2="90"></line><line x1="350" y1="20" x2="350" y2="90"></line>
      <path d="M212,20 C240,26 246,40 248,54"></path>
      <path d="M212,90 C238,84 244,70 246,58"></path>
      <path d="M212,44 C236,46 240,52 242,58"></path>
    </g>
    <text x="222" y="16" class="lbl sm">fringing / non-uniform field at the mouth</text>
    <text x="222" y="122" class="lbl sm">E is stronger on the high-κ side of any dipole ⇒ net pull to the right</text>
    <line x1="150" y1="128" x2="240" y2="128" stroke="var(--neg)" stroke-width="3" marker-end="url(#aho)"></line>
    <text x="120" y="132" class="mi" fill="var(--neg)">F = ε₀(κ−1)wV²/2d</text>
    <line x1="60" y1="140" x2="210" y2="140" class="thinl"></line>
    <text x="120" y="156" class="lbl sm">x</text>
  </g>
</svg>
